<svg width="101" height="97" viewBox="0 0 101 97" fill="none" xmlns="http://www.w3.org/2000/svg">
<g clip-path="url(#clip0_210_8)">
<path d="M76.6976 47.1647L39.6643 22.9147C39.1475 22.5785 38.4809 22.5413 37.9287 22.821C37.3783 23.1007 37.0332 23.6503 37.0332 24.2501V72.7501C37.0332 73.3499 37.3783 73.8996 37.9304 74.1792C38.1762 74.3053 38.4472 74.3668 38.7165 74.3668C39.0482 74.3668 39.3798 74.2714 39.6643 74.0855L76.6976 49.8355C77.1571 49.5348 77.4332 49.0352 77.4332 48.5001C77.4332 47.965 77.1571 47.4654 76.6976 47.1647ZM40.3999 69.6898V27.3105L72.7619 48.5001L40.3999 69.6898Z" fill="white"/>
<path d="M50.5 0C22.6543 0 0 21.7571 0 48.5C0 75.2429 22.6543 97 50.5 97C78.3457 97 101 75.2429 101 48.5C101 21.7571 78.3457 0 50.5 0ZM50.5 93.7667C24.511 93.7667 3.36667 73.4597 3.36667 48.5C3.36667 23.5403 24.511 3.23333 50.5 3.23333C76.489 3.23333 97.6333 23.5403 97.6333 48.5C97.6333 73.4597 76.489 93.7667 50.5 93.7667Z" fill="white"/>
</g>
<defs>
<clipPath id="clip0_210_8">
<rect width="101" height="97" fill="white"/>
</clipPath>
</defs>
</svg>
